<?xml version="1.0" encoding="UTF-8"?>
<svg width="1200" height="800" xmlns="http://www.w3.org/2000/svg">
  <!-- Enemy Path - Brown road with smooth curves -->
  <path 
    d="M 0 400 C 100 400 100 400 200 400 C 200 300 200 300 200 200 C 300 200 300 200 400 200 C 400 350 400 350 400 500 C 500 500 500 500 600 500 C 600 425 600 425 600 300 C 700 300 700 300 800 300 C 800 350 800 350 800 400 C 900 400 900 400 1000 400 C 1000 300 1000 300 1000 200 C 1100 200 1100 200 1200 200" 
    stroke="#8b4513" 
    stroke-width="60" 
    stroke-linecap="round" 
    stroke-linejoin="round" 
    fill="none"
  />
  
  <!-- Path border/outline for better definition -->
  <path 
    d="M 0 400 C 100 400 100 400 200 400 C 200 300 200 300 200 200 C 300 200 300 200 400 200 C 400 350 400 350 400 500 C 500 500 500 500 600 500 C 600 425 600 425 600 300 C 700 300 700 300 800 300 C 800 350 800 350 800 400 C 900 400 900 400 1000 400 C 1000 300 1000 300 1000 200 C 1100 200 1100 200 1200 200" 
    stroke="#654321" 
    stroke-width="64" 
    stroke-linecap="round" 
    stroke-linejoin="round" 
    fill="none"
    opacity="0.3"
  />
  
  <!-- Path center line for road markings -->
  <path 
    d="M 0 400 C 100 400 100 400 200 400 C 200 300 200 300 200 200 C 300 200 300 200 400 200 C 400 350 400 350 400 500 C 500 500 500 500 600 500 C 600 425 600 425 600 300 C 700 300 700 300 800 300 C 800 350 800 350 800 400 C 900 400 900 400 1000 400 C 1000 300 1000 300 1000 200 C 1100 200 1100 200 1200 200" 
    stroke="#ffffff" 
    stroke-width="2" 
    stroke-linecap="round" 
    stroke-linejoin="round" 
    fill="none"
    opacity="0.4"
    stroke-dasharray="10,10"
  />
</svg> 