<?xml version="1.0" encoding="UTF-8"?>
<svg width="36" height="36" viewBox="0 0 36 36" xmlns="http://www.w3.org/2000/svg">
  <!-- Background circle -->
  <circle cx="18" cy="18" r="17" fill="#2c3e50" stroke="#1a252f" stroke-width="1"/>
  
  <!-- Main body -->
  <circle cx="18" cy="18" r="14" fill="#8b4513"/>
  
  <!-- Inner body -->
  <circle cx="18" cy="18" r="11" fill="#a0522d"/>
  
  <!-- Multiple eyes -->
  <circle cx="14" cy="14" r="2.5" fill="#27ae60"/>
  <circle cx="22" cy="14" r="2.5" fill="#27ae60"/>
  <circle cx="18" cy="10" r="2" fill="#27ae60"/>
  <circle cx="14" cy="14" r="1" fill="#ffffff"/>
  <circle cx="22" cy="14" r="1" fill="#ffffff"/>
  <circle cx="18" cy="10" r="0.8" fill="#ffffff"/>
  
  <!-- Mouth with teeth -->
  <rect x="15" y="20" width="6" height="3" fill="#2c3e50" rx="1"/>
  <rect x="16" y="21" width="1" height="1" fill="#ffffff"/>
  <rect x="18" y="21" width="1" height="1" fill="#ffffff"/>
  <rect x="20" y="21" width="1" height="1" fill="#ffffff"/>
  
  <!-- Spikes around the body -->
  <polygon points="18,6 20,10 16,10" fill="#95a5a6"/>
  <polygon points="18,30 20,26 16,26" fill="#95a5a6"/>
  <polygon points="6,18 10,20 10,16" fill="#95a5a6"/>
  <polygon points="30,18 26,20 26,16" fill="#95a5a6"/>
  
  <!-- Additional spikes -->
  <polygon points="12,8 14,12 10,12" fill="#7f8c8d"/>
  <polygon points="24,8 26,12 22,12" fill="#7f8c8d"/>
  <polygon points="12,28 14,24 10,24" fill="#7f8c8d"/>
  <polygon points="24,28 26,24 22,24" fill="#7f8c8d"/>
  
  <!-- Armor plates -->
  <rect x="10" y="10" width="4" height="4" fill="#34495e" rx="1"/>
  <rect x="22" y="10" width="4" height="4" fill="#34495e" rx="1"/>
  <rect x="10" y="22" width="4" height="4" fill="#34495e" rx="1"/>
  <rect x="22" y="22" width="4" height="4" fill="#34495e" rx="1"/>
  
  <!-- Energy core -->
  <circle cx="18" cy="18" r="3" fill="#e74c3c"/>
  <circle cx="18" cy="18" r="1.5" fill="#ffffff"/>
  
  <!-- Glow effect -->
  <circle cx="18" cy="18" r="5" fill="none" stroke="#e74c3c" stroke-width="0.5" opacity="0.6"/>
</svg> 