<?xml version="1.0" encoding="UTF-8"?>
<svg width="60" height="60" viewBox="0 0 60 60" xmlns="http://www.w3.org/2000/svg">
  <!-- Main body - dark metallic -->
  <rect x="10" y="20" width="40" height="30" rx="8" fill="#2c3e50" stroke="#34495e" stroke-width="2"/>
  
  <!-- Armor plating -->
  <rect x="12" y="22" width="36" height="8" fill="#34495e"/>
  <rect x="12" y="34" width="36" height="6" fill="#34495e"/>
  <rect x="12" y="44" width="36" height="4" fill="#34495e"/>
  
  <!-- Central core - glowing -->
  <circle cx="30" cy="35" r="8" fill="#e74c3c" stroke="#c0392b" stroke-width="1"/>
  <circle cx="30" cy="35" r="4" fill="#ffffff"/>
  
  <!-- Multiple eyes -->
  <circle cx="20" cy="25" r="3" fill="#f39c12" stroke="#e67e22" stroke-width="1"/>
  <circle cx="40" cy="25" r="3" fill="#f39c12" stroke="#e67e22" stroke-width="1"/>
  <circle cx="25" cy="20" r="2" fill="#e74c3c" stroke="#c0392b" stroke-width="1"/>
  <circle cx="35" cy="20" r="2" fill="#e74c3c" stroke="#c0392b" stroke-width="1"/>
  
  <!-- Eye pupils -->
  <circle cx="20" cy="25" r="1.5" fill="#000000"/>
  <circle cx="40" cy="25" r="1.5" fill="#000000"/>
  <circle cx="25" cy="20" r="1" fill="#000000"/>
  <circle cx="35" cy="20" r="1" fill="#000000"/>
  
  <!-- Spikes/horns -->
  <polygon points="15,15 18,10 21,15" fill="#7f8c8d" stroke="#95a5a6" stroke-width="1"/>
  <polygon points="39,15 42,10 45,15" fill="#7f8c8d" stroke="#95a5a6" stroke-width="1"/>
  <polygon points="27,12 30,7 33,12" fill="#e74c3c" stroke="#c0392b" stroke-width="1"/>
  
  <!-- Legs/appendages -->
  <rect x="15" y="50" width="4" height="8" fill="#34495e" rx="2"/>
  <rect x="25" y="50" width="4" height="8" fill="#34495e" rx="2"/>
  <rect x="35" y="50" width="4" height="8" fill="#34495e" rx="2"/>
  <rect x="45" y="50" width="4" height="8" fill="#34495e" rx="2"/>
  
  <!-- Energy field effect -->
  <circle cx="30" cy="35" r="25" fill="none" stroke="#e74c3c" stroke-width="1" opacity="0.3"/>
  <circle cx="30" cy="35" r="20" fill="none" stroke="#f39c12" stroke-width="1" opacity="0.2"/>
  
  <!-- Glow effects -->
  <defs>
    <radialGradient id="coreGlow" cx="0.5" cy="0.5" r="0.5">
      <stop offset="0%" stop-color="#e74c3c" stop-opacity="0.8"/>
      <stop offset="100%" stop-color="#e74c3c" stop-opacity="0"/>
    </radialGradient>
  </defs>
  <circle cx="30" cy="35" r="15" fill="url(#coreGlow)"/>
</svg> 