<svg width="40" height="40" viewBox="0 0 40 40" xmlns="http://www.w3.org/2000/svg">
  <!-- Tower base (hexagonal foundation) -->
  <polygon points="20,3 32,9 32,23 20,37 8,23 8,9" fill="#4a5a4a" stroke="#2a3a2a" stroke-width="2"/>
  
  <!-- Inner tower platform -->
  <polygon points="20,7 28,11 28,21 20,33 12,21 12,11" fill="#5a6a5a" stroke="#3a4a3a" stroke-width="1"/>
  
  <!-- Central rapid-fire turret -->
  <circle cx="20" cy="20" r="8" fill="#6a7a6a" stroke="#4a5a4a" stroke-width="1"/>
  
  <!-- Triple barrel system pointing right -->
  <rect x="28" y="17" width="10" height="2" fill="#d4af37" stroke="#b8941f" stroke-width="1"/>
  <rect x="28" y="19.5" width="10" height="2" fill="#d4af37" stroke="#b8941f" stroke-width="1"/>
  <rect x="28" y="22" width="10" height="2" fill="#d4af37" stroke="#b8941f" stroke-width="1"/>
  
  <!-- Turret mount with orange energy core -->
  <circle cx="20" cy="20" r="5" fill="#ff6b35" stroke="#e55a2b" stroke-width="1"/>
  
  <!-- Six positioning nodes around the hexagon -->
  <circle cx="20" cy="8" r="2" fill="#4a5a4a" stroke="#2a3a2a" stroke-width="1"/>
  <circle cx="27" cy="12" r="2" fill="#4a5a4a" stroke="#2a3a2a" stroke-width="1"/>
  <circle cx="27" cy="28" r="2" fill="#4a5a4a" stroke="#2a3a2a" stroke-width="1"/>
  <circle cx="20" cy="32" r="2" fill="#4a5a4a" stroke="#2a3a2a" stroke-width="1"/>
  <circle cx="13" cy="28" r="2" fill="#4a5a4a" stroke="#2a3a2a" stroke-width="1"/>
  <circle cx="13" cy="12" r="2" fill="#4a5a4a" stroke="#2a3a2a" stroke-width="1"/>
  
  <!-- Energy core center -->
  <circle cx="20" cy="20" r="2" fill="#ffaa44" stroke="#ff8822" stroke-width="1"/>
  
  <!-- Barrel muzzles with blue energy -->
  <circle cx="37" cy="18" r="1.5" fill="#4da6ff" stroke="#2280dd" stroke-width="1"/>
  <circle cx="37" cy="20.5" r="1.5" fill="#4da6ff" stroke="#2280dd" stroke-width="1"/>
  <circle cx="37" cy="23" r="1.5" fill="#4da6ff" stroke="#2280dd" stroke-width="1"/>
  
  <!-- Highlight on barrels -->
  <rect x="28" y="17" width="6" height="0.5" fill="#f0c040"/>
  <rect x="28" y="19.5" width="6" height="0.5" fill="#f0c040"/>
  <rect x="28" y="22" width="6" height="0.5" fill="#f0c040"/>
  
  <!-- Energy flow lines -->
  <line x1="25" y1="18" x2="28" y2="18" stroke="#ff8844" stroke-width="1"/>
  <line x1="25" y1="20.5" x2="28" y2="20.5" stroke="#ff8844" stroke-width="1"/>
  <line x1="25" y1="23" x2="28" y2="23" stroke="#ff8844" stroke-width="1"/>
</svg>