<svg xmlns="http://www.w3.org/2000/svg" viewBox="0 0 1200 800">
  <!-- Desert background -->
  <rect width="1200" height="800" fill="#F4E4BC"/>
  
  <!-- Large sand dunes -->
  <ellipse cx="200" cy="650" rx="180" ry="100" fill="#E6D39A"/>
  <ellipse cx="600" cy="700" rx="200" ry="80" fill="#E6D39A"/>
  <ellipse cx="1000" cy="600" rx="150" ry="120" fill="#E6D39A"/>
  <ellipse cx="400" cy="200" rx="120" ry="60" fill="#E6D39A"/>
  <ellipse cx="800" cy="150" rx="100" ry="50" fill="#E6D39A"/>
  
  <!-- Medium dunes -->
  <ellipse cx="100" cy="400" rx="80" ry="40" fill="#DCC68A"/>
  <ellipse cx="500" cy="500" rx="90" ry="45" fill="#DCC68A"/>
  <ellipse cx="900" cy="350" rx="70" ry="35" fill="#DCC68A"/>
  <ellipse cx="300" cy="600" rx="60" ry="30" fill="#DCC68A"/>
  
  <!-- Palm trees scattered around -->
  <g transform="translate(150,550)">
    <rect x="18" y="40" width="4" height="30" fill="#8B4513"/>
    <ellipse cx="20" cy="35" rx="12" ry="8" fill="#228B22"/>
    <ellipse cx="16" cy="38" rx="8" ry="5" fill="#32CD32"/>
    <ellipse cx="24" cy="38" rx="8" ry="5" fill="#32CD32"/>
  </g>
  
  <g transform="translate(750,250)">
    <rect x="18" y="40" width="4" height="30" fill="#8B4513"/>
    <ellipse cx="20" cy="35" rx="12" ry="8" fill="#228B22"/>
    <ellipse cx="16" cy="38" rx="8" ry="5" fill="#32CD32"/>
    <ellipse cx="24" cy="38" rx="8" ry="5" fill="#32CD32"/>
  </g>
  
  <g transform="translate(450,300)">
    <rect x="18" y="40" width="4" height="30" fill="#8B4513"/>
    <ellipse cx="20" cy="35" rx="12" ry="8" fill="#228B22"/>
    <ellipse cx="16" cy="38" rx="8" ry="5" fill="#32CD32"/>
    <ellipse cx="24" cy="38" rx="8" ry="5" fill="#32CD32"/>
  </g>
  
  <!-- Rocks -->
  <ellipse cx="320" cy="450" rx="15" ry="10" fill="#8B7355"/>
  <ellipse cx="680" cy="520" rx="12" ry="8" fill="#8B7355"/>
  <ellipse cx="950" cy="300" rx="18" ry="12" fill="#8B7355"/>
  
  <!-- Path -->
  <path d="M 0 300 L 150 300 L 150 150 L 350 150 L 350 450 L 550 450 L 550 250 L 750 250 L 750 400 L 950 400 L 950 150 L 1200 150" 
        stroke="#D4AF37" stroke-width="8" fill="none" opacity="0.6"/>
</svg>