<svg xmlns="http://www.w3.org/2000/svg" viewBox="0 0 1200 800">
  <!-- Volcanic background -->
  <rect width="1200" height="800" fill="#2F1B14"/>
  
  <!-- Large lava pools -->
  <ellipse cx="200" cy="350" rx="120" ry="80" fill="#FF4500"/>
  <ellipse cx="600" cy="600" rx="150" ry="70" fill="#FF6347"/>
  <ellipse cx="1000" cy="200" rx="100" ry="60" fill="#FF4500"/>
  <ellipse cx="400" cy="700" rx="80" ry="50" fill="#DC143C"/>
  <ellipse cx="800" cy="100" rx="90" ry="45" fill="#FF6347"/>
  
  <!-- Medium lava pools -->
  <ellipse cx="100" cy="600" rx="60" ry="40" fill="#FF6347"/>
  <ellipse cx="900" cy="500" rx="70" ry="35" fill="#FF4500"/>
  <ellipse cx="500" cy="150" rx="50" ry="30" fill="#DC143C"/>
  
  <!-- Rocky formations -->
  <polygon points="300,800 350,400 400,800" fill="#4A4A4A"/>
  <polygon points="550,800 600,350 650,800" fill="#696969"/>
  <polygon points="750,800 800,380 850,800" fill="#4A4A4A"/>
  <polygon points="50,800 100,450 150,800" fill="#696969"/>
  <polygon points="950,800 1000,420 1050,800" fill="#4A4A4A"/>
  
  <!-- Volcanic rocks scattered -->
  <polygon points="250,550 270,530 290,550 270,570" fill="#8B0000"/>
  <polygon points="450,300 470,280 490,300 470,320" fill="#8B0000"/>
  <polygon points="700,650 720,630 740,650 720,670" fill="#8B0000"/>
  <polygon points="850,250 870,230 890,250 870,270" fill="#8B0000"/>
  
  <!-- Smoke effects -->
  <ellipse cx="200" cy="300" rx="30" ry="60" fill="#555555" opacity="0.4"/>
  <ellipse cx="600" cy="550" rx="25" ry="50" fill="#555555" opacity="0.4"/>
  <ellipse cx="1000" cy="150" rx="20" ry="40" fill="#555555" opacity="0.4"/>
  
  <!-- Complex path -->
  <path d="M 0 400 L 120 400 L 120 200 L 280 200 L 280 500 L 480 500 L 480 150 L 680 150 L 680 450 L 520 450 L 520 300 L 720 300 L 720 550 L 920 550 L 920 250 L 1080 250 L 1080 450 L 1200 450" 
        stroke="#FFD700" stroke-width="8" fill="none" opacity="0.8"/>
</svg>