<svg xmlns="http://www.w3.org/2000/svg" viewBox="0 0 200 150">
  <!-- Volcanic background -->
  <rect width="200" height="150" fill="#2F1B14"/>
  
  <!-- Lava pools -->
  <ellipse cx="40" cy="40" rx="25" ry="15" fill="#FF4500"/>
  <ellipse cx="160" cy="110" rx="20" ry="12" fill="#FF6347"/>
  <ellipse cx="120" cy="30" rx="15" ry="10" fill="#FF4500"/>
  
  <!-- Rocky formations -->
  <polygon points="60,150 70,80 80,150" fill="#4A4A4A"/>
  <polygon points="110,150 120,70 130,150" fill="#696969"/>
  <polygon points="20,150 30,90 40,150" fill="#4A4A4A"/>
  
  <!-- Complex path preview -->
  <path d="M 0 100 L 30 100 L 30 50 L 70 50 L 70 125 L 120 125 L 120 37 L 170 37 L 170 112 L 130 112 L 130 75 L 180 75 L 180 137 L 200 137" 
        stroke="#FFD700" stroke-width="3" fill="none" opacity="0.9"/>
  
  <!-- Volcanic rocks -->
  <polygon points="90,90 95,85 100,90 95,95" fill="#8B0000"/>
  <polygon points="50,120 55,115 60,120 55,125" fill="#8B0000"/>
  
  <!-- Map name -->
  <text x="100" y="20" text-anchor="middle" font-family="Arial" font-size="13" font-weight="bold" fill="#FFD700">Volcanic Maze</text>
</svg>